<?xml version="1.0" encoding="UTF-8" standalone="no"?>
<!-- Created with Keyshape -->
<svg xmlns="http://www.w3.org/2000/svg" viewBox="0 0 36 36" text-rendering="geometricPrecision" shape-rendering="geometricPrecision" style="white-space: pre;">
    <path d="M-3.13735,-2.93519C-3.13735,-2.93519,10.6213,6.49981,17.462,11.1488C18.1464,11.653,18.3298,12.7532,17.462,13.1429C15.7976,13.8902,10.4584,15.0567,10.4584,15.0567C10.4584,15.0567,5.04384,18.4032,5.04384,18.4032C5.04384,18.4032,0.643651,23.0217,-0.26081,23.4915C-1.16529,23.9613,-1.97199,23.056,-1.97199,22.2996C-1.97199,21.2124,-3.90776,-2.41335,-3.90776,-2.41335C-3.90776,-2.41335,-3.64329,-2.93519,-3.64329,-2.93519C-3.64329,-2.93519,-3.13735,-2.93519,-3.13735,-2.93519Z" fill="#000000" stroke-linecap="square" stroke="none" stroke-width="3" transform="translate(20,18) translate(-7.06917,-10.3428)"/>
</svg>
