<?xml version="1.0" encoding="UTF-8" standalone="no"?>
<!-- Created with Keyshape -->
<svg xmlns="http://www.w3.org/2000/svg" viewBox="0 0 36 36" text-rendering="geometricPrecision" shape-rendering="geometricPrecision" style="white-space: pre;">
    <path d="M-3.06878,-2.93519C-3.06878,-2.93519,11.9144,7.40792,19.3639,12.5044C20.1092,13.0571,20.3089,14.2632,19.3639,14.6904C17.5513,15.5096,11.737,16.7884,11.737,16.7884L15.7702,23.8113C15.7803,23.8036,16.4503,24.732,15.7702,25.3189C15.111,25.8874,11.3775,27.9572,11.3775,27.9572C11.3775,27.9572,10.4725,28.3844,9.78039,27.2033C9.50703,26.737,5.84052,20.457,5.84052,20.457C5.84052,20.457,1.04872,25.52,0.0637629,26.035C-0.92121,26.55,-1.79971,25.5576,-1.79971,24.7284C-1.79971,23.5366,-3.90776,-2.36312,-3.90776,-2.36312C-3.90776,-2.36312,-3.61975,-2.93519,-3.61975,-2.93519C-3.61975,-2.93519,-3.06878,-2.93519,-3.06878,-2.93519Z" fill="none" stroke-linecap="square" stroke="#000000" stroke-width="3" transform="translate(11,5.45136)"/>
</svg>
