<?xml version="1.0" encoding="UTF-8" standalone="no"?>
<!-- Created with Keyshape -->
<svg xmlns="http://www.w3.org/2000/svg" viewBox="0 0 36 36" text-rendering="geometricPrecision" shape-rendering="geometricPrecision" style="white-space: pre;">
    <path d="M0,0C-0.155639,-0.155639,-2.45131,-3.26842,-2.8015,-4.43571C-3.13989,-5.56366,-7.5485,-7.89869,-6.22556,-9.68854C-4.90262,-11.4784,-1.16729,-8.30301,-1.16729,-8.30301C-1.16729,-8.30301,-2.9553,-12.7328,-3.42406,-13.9686C-3.85207,-15.097,-2.72368,-17.1981,-1.51748,-15.9919C-0.311278,-14.7857,1.40075,-10.4667,1.40075,-10.4667C1.40075,-10.4667,1.40075,-16.2663,1.40075,-17.2507C1.40075,-18.1846,3.32476,-19.4256,3.81316,-16.8616C4.28008,-14.4103,4.6777,-10.4667,4.6777,-10.4667C4.6777,-10.4667,5.40846,-14.6301,5.75865,-15.525C6.10884,-16.4199,8.13214,-17.9052,8.13214,-14.6301C8.13214,-12.8402,8.13214,-10.0776,8.13214,-10.0776C8.13214,-10.0776,9.81983,-14.0928,11.1756,-13.4765C12.0316,-13.0874,11.8286,-12.4122,11.8286,-12.4122C11.8286,-12.4122,10.2484,-7.05049,10.1165,-6.42011C9.76635,-4.74699,7.66522,-1.51747,8.13214,-1.16729C8.59906,-0.817105,8.20996,0.544732,8.13214,1.36184C8.05432,2.17895,5.71974,0.894925,5.09718,0C4.47462,-0.894925,3.89098,1.05056,3.81316,1.36184C3.73534,1.67312,0,1.36184,0,1.36184C0,1.36184,0.155639,0.155639,0,0Z" fill="none" stroke-linecap="round" stroke="#000000" stroke-width="2" transform="translate(15.3219,26.1611)"/>
</svg>
